<?xml version="1.0" encoding="UTF-8" standalone="no"?>
<!-- Created with Inkscape (http://www.inkscape.org/) -->

<svg
   xmlns:dc="http://purl.org/dc/elements/1.1/"
   xmlns:cc="http://creativecommons.org/ns#"
   xmlns:rdf="http://www.w3.org/1999/02/22-rdf-syntax-ns#"
   xmlns:svg="http://www.w3.org/2000/svg"
   xmlns="http://www.w3.org/2000/svg"
   xmlns:xlink="http://www.w3.org/1999/xlink"
   xmlns:sodipodi="http://sodipodi.sourceforge.net/DTD/sodipodi-0.dtd"
   xmlns:inkscape="http://www.inkscape.org/namespaces/inkscape"
   width="173.83984"
   height="173.83789"
   id="svg4180"
   version="1.1"
   inkscape:version="0.91pre2 r"
   viewBox="0 0 173.83984 173.83789"
   sodipodi:docname="logo-bw.svg"
   inkscape:export-filename="/home/yume/combustion/libs/thai-moons_docs/logo-bw.png"
   inkscape:export-xdpi="299.76202"
   inkscape:export-ydpi="299.76202">
  <defs
     id="defs4182">
    <clipPath
       clipPathUnits="userSpaceOnUse"
       id="clipPath4573">
      <path
         style="color:#000000;font-style:normal;font-variant:normal;font-weight:normal;font-stretch:normal;font-size:medium;line-height:normal;font-family:sans-serif;text-indent:0;text-align:start;text-decoration:none;text-decoration-line:none;text-decoration-style:solid;text-decoration-color:#000000;letter-spacing:normal;word-spacing:normal;text-transform:none;direction:ltr;block-progression:tb;writing-mode:lr-tb;baseline-shift:baseline;text-anchor:start;white-space:normal;clip-rule:nonzero;display:inline;overflow:visible;visibility:visible;opacity:1;isolation:auto;mix-blend-mode:normal;color-interpolation:sRGB;color-interpolation-filters:linearRGB;solid-color:#000000;solid-opacity:1;fill:#002b36;fill-opacity:1;fill-rule:nonzero;stroke:none;stroke-width:5.96086454;stroke-linecap:butt;stroke-linejoin:miter;stroke-miterlimit:3;stroke-dasharray:none;stroke-dashoffset:0;stroke-opacity:1;color-rendering:auto;image-rendering:auto;shape-rendering:auto;text-rendering:auto;enable-background:accumulate"
         d="m 342.94679,304.2984 c -47.96881,0 -86.91992,38.95111 -86.91992,86.91992 0,47.96881 38.95111,86.91797 86.91992,86.91797 47.96881,0 86.91992,-38.94916 86.91992,-86.91797 0,-47.96881 -38.95111,-86.91992 -86.91992,-86.91992 z"
         id="path4575"
         inkscape:connector-curvature="0"
         sodipodi:nodetypes="sssss" />
    </clipPath>
    <clipPath
       clipPathUnits="userSpaceOnUse"
       id="clipPath4577">
      <path
         style="color:#000000;font-style:normal;font-variant:normal;font-weight:normal;font-stretch:normal;font-size:medium;line-height:normal;font-family:sans-serif;text-indent:0;text-align:start;text-decoration:none;text-decoration-line:none;text-decoration-style:solid;text-decoration-color:#000000;letter-spacing:normal;word-spacing:normal;text-transform:none;direction:ltr;block-progression:tb;writing-mode:lr-tb;baseline-shift:baseline;text-anchor:start;white-space:normal;clip-rule:nonzero;display:inline;overflow:visible;visibility:visible;opacity:1;isolation:auto;mix-blend-mode:normal;color-interpolation:sRGB;color-interpolation-filters:linearRGB;solid-color:#000000;solid-opacity:1;fill:#002b36;fill-opacity:1;fill-rule:nonzero;stroke:none;stroke-width:5.96086454;stroke-linecap:butt;stroke-linejoin:miter;stroke-miterlimit:3;stroke-dasharray:none;stroke-dashoffset:0;stroke-opacity:1;color-rendering:auto;image-rendering:auto;shape-rendering:auto;text-rendering:auto;enable-background:accumulate"
         d="m 342.94679,304.2984 c -47.96881,0 -86.91992,38.95111 -86.91992,86.91992 0,47.96881 38.95111,86.91797 86.91992,86.91797 47.96881,0 86.91992,-38.94916 86.91992,-86.91797 0,-47.96881 -38.95111,-86.91992 -86.91992,-86.91992 z"
         id="path4579"
         inkscape:connector-curvature="0"
         sodipodi:nodetypes="sssss" />
    </clipPath>
    <clipPath
       clipPathUnits="userSpaceOnUse"
       id="clipPath4581">
      <path
         style="color:#000000;font-style:normal;font-variant:normal;font-weight:normal;font-stretch:normal;font-size:medium;line-height:normal;font-family:sans-serif;text-indent:0;text-align:start;text-decoration:none;text-decoration-line:none;text-decoration-style:solid;text-decoration-color:#000000;letter-spacing:normal;word-spacing:normal;text-transform:none;direction:ltr;block-progression:tb;writing-mode:lr-tb;baseline-shift:baseline;text-anchor:start;white-space:normal;clip-rule:nonzero;display:inline;overflow:visible;visibility:visible;opacity:1;isolation:auto;mix-blend-mode:normal;color-interpolation:sRGB;color-interpolation-filters:linearRGB;solid-color:#000000;solid-opacity:1;fill:#002b36;fill-opacity:1;fill-rule:nonzero;stroke:none;stroke-width:5.96086454;stroke-linecap:butt;stroke-linejoin:miter;stroke-miterlimit:3;stroke-dasharray:none;stroke-dashoffset:0;stroke-opacity:1;color-rendering:auto;image-rendering:auto;shape-rendering:auto;text-rendering:auto;enable-background:accumulate"
         d="m 342.94679,304.2984 c -47.96881,0 -86.91992,38.95111 -86.91992,86.91992 0,47.96881 38.95111,86.91797 86.91992,86.91797 47.96881,0 86.91992,-38.94916 86.91992,-86.91797 0,-47.96881 -38.95111,-86.91992 -86.91992,-86.91992 z"
         id="path4583"
         inkscape:connector-curvature="0"
         sodipodi:nodetypes="sssss" />
    </clipPath>
    <clipPath
       clipPathUnits="userSpaceOnUse"
       id="clipPath4585">
      <path
         style="color:#000000;font-style:normal;font-variant:normal;font-weight:normal;font-stretch:normal;font-size:medium;line-height:normal;font-family:sans-serif;text-indent:0;text-align:start;text-decoration:none;text-decoration-line:none;text-decoration-style:solid;text-decoration-color:#000000;letter-spacing:normal;word-spacing:normal;text-transform:none;direction:ltr;block-progression:tb;writing-mode:lr-tb;baseline-shift:baseline;text-anchor:start;white-space:normal;clip-rule:nonzero;display:inline;overflow:visible;visibility:visible;opacity:1;isolation:auto;mix-blend-mode:normal;color-interpolation:sRGB;color-interpolation-filters:linearRGB;solid-color:#000000;solid-opacity:1;fill:#002b36;fill-opacity:1;fill-rule:nonzero;stroke:none;stroke-width:5.96086454;stroke-linecap:butt;stroke-linejoin:miter;stroke-miterlimit:3;stroke-dasharray:none;stroke-dashoffset:0;stroke-opacity:1;color-rendering:auto;image-rendering:auto;shape-rendering:auto;text-rendering:auto;enable-background:accumulate"
         d="m 342.94679,304.2984 c -47.96881,0 -86.91992,38.95111 -86.91992,86.91992 0,47.96881 38.95111,86.91797 86.91992,86.91797 47.96881,0 86.91992,-38.94916 86.91992,-86.91797 0,-47.96881 -38.95111,-86.91992 -86.91992,-86.91992 z"
         id="path4587"
         inkscape:connector-curvature="0"
         sodipodi:nodetypes="sssss" />
    </clipPath>
  </defs>
  <sodipodi:namedview
     id="base"
     pagecolor="#ffffff"
     bordercolor="#666666"
     borderopacity="1.0"
     inkscape:pageopacity="0.0"
     inkscape:pageshadow="2"
     inkscape:zoom="0.98994949"
     inkscape:cx="-48.776522"
     inkscape:cy="104.17666"
     inkscape:document-units="px"
     inkscape:current-layer="layer2"
     showgrid="false"
     inkscape:window-width="1364"
     inkscape:window-height="747"
     inkscape:window-x="0"
     inkscape:window-y="19"
     inkscape:window-maximized="1"
     showguides="false"
     inkscape:guide-bbox="true"
     inkscape:snap-bbox="true"
     inkscape:snap-bbox-midpoints="false"
     inkscape:object-nodes="false"
     inkscape:bbox-paths="false"
     inkscape:bbox-nodes="false"
     inkscape:object-paths="false"
     inkscape:snap-others="true"
     fit-margin-top="0"
     fit-margin-left="0"
     fit-margin-right="0"
     fit-margin-bottom="0">
    <sodipodi:guide
       orientation="1,0"
       position="86.91992,86.918946"
       id="guide4438" />
    <sodipodi:guide
       orientation="0,1"
       position="129.8514,86.918946"
       id="guide4440" />
  </sodipodi:namedview>
  <metadata
     id="metadata4185">
    <rdf:RDF>
      <cc:Work
         rdf:about="">
        <dc:format>image/svg+xml</dc:format>
        <dc:type
           rdf:resource="http://purl.org/dc/dcmitype/StillImage" />
        <dc:title></dc:title>
      </cc:Work>
    </rdf:RDF>
  </metadata>
  <g
     inkscape:groupmode="layer"
     id="layer2"
     inkscape:label="lotus moon"
     style="display:inline"
     transform="translate(-256.02687,-304.2984)">
    <path
       style="color:#000000;font-style:normal;font-variant:normal;font-weight:normal;font-stretch:normal;font-size:medium;line-height:normal;font-family:sans-serif;text-indent:0;text-align:start;text-decoration:none;text-decoration-line:none;text-decoration-style:solid;text-decoration-color:#000000;letter-spacing:normal;word-spacing:normal;text-transform:none;direction:ltr;block-progression:tb;writing-mode:lr-tb;baseline-shift:baseline;text-anchor:start;white-space:normal;clip-rule:nonzero;display:inline;overflow:visible;visibility:visible;opacity:1;isolation:auto;mix-blend-mode:normal;color-interpolation:sRGB;color-interpolation-filters:linearRGB;solid-color:#000000;solid-opacity:1;fill:#ffffff;fill-opacity:1;fill-rule:nonzero;stroke:none;stroke-width:5.96086454;stroke-linecap:butt;stroke-linejoin:miter;stroke-miterlimit:3;stroke-dasharray:none;stroke-dashoffset:0;stroke-opacity:1;color-rendering:auto;image-rendering:auto;shape-rendering:auto;text-rendering:auto;enable-background:accumulate"
       d="m 342.94679,308.2984 c -47.96881,0 -82.91992,34.95111 -82.91992,82.91992 0,47.96881 34.95111,82.91797 82.91992,82.91797 47.96881,0 82.91992,-34.94916 82.91992,-82.91797 0,-47.96881 -34.95111,-82.91992 -82.91992,-82.91992 z"
       id="path4188"
       inkscape:connector-curvature="0"
       sodipodi:nodetypes="sssss" />
    <path
       id="path4469"
       style="fill:#ffffff;fill-opacity:1;fill-rule:evenodd;stroke:#93a1a1;stroke-width:5;stroke-linecap:butt;stroke-linejoin:miter;stroke-miterlimit:4;stroke-dasharray:none;stroke-opacity:1"
       d="m 395.35709,416.71661 c 0,-11.21973 -13.49384,-23.30358 -34.62204,-22.9934 -26.23173,0.38511 -39.36127,35.6989 -65.2045,48.79536 25.84323,13.09646 38.97277,48.41025 65.2045,48.79536 21.1282,0.31018 34.62204,-11.77367 34.62204,-22.9934 z"
       inkscape:connector-curvature="0"
       sodipodi:nodetypes="cscscc"
       clip-path="url(#clipPath4585)" />
    <path
       sodipodi:nodetypes="cscscc"
       inkscape:connector-curvature="0"
       d="m 395.35709,314.11416 c 0,-11.21973 -13.49384,-23.30358 -34.62204,-22.9934 -26.23173,0.38511 -39.36127,35.6989 -65.2045,48.79536 25.84323,13.09646 38.97277,48.41025 65.2045,48.79536 21.1282,0.31018 34.62204,-11.77367 34.62204,-22.9934 z"
       style="fill:#ffffff;fill-opacity:1;fill-rule:evenodd;stroke:#93a1a1;stroke-width:5;stroke-linecap:butt;stroke-linejoin:miter;stroke-miterlimit:4;stroke-dasharray:none;stroke-opacity:1"
       id="path4467"
       clip-path="url(#clipPath4581)" />
    <path
       sodipodi:nodetypes="cscscc"
       inkscape:connector-curvature="0"
       d="m 422.10319,391.21734 c 11.21973,0 23.30358,-13.49384 22.9934,-34.62204 -0.38511,-26.23173 -35.6989,-39.36127 -48.79536,-65.2045 -13.09646,25.84323 -48.41025,38.97277 -48.79536,65.2045 -0.31018,21.1282 11.77367,34.62204 22.9934,34.62204 z"
       style="fill:#ffffff;fill-opacity:1;fill-rule:evenodd;stroke:#93a1a1;stroke-width:5;stroke-linecap:butt;stroke-linejoin:miter;stroke-miterlimit:4;stroke-dasharray:none;stroke-opacity:1"
       id="path4457"
       clip-path="url(#clipPath4577)" />
    <path
       id="path4465"
       style="fill:#ffffff;fill-opacity:1;fill-rule:evenodd;stroke:#93a1a1;stroke-width:5;stroke-linecap:butt;stroke-linejoin:miter;stroke-miterlimit:4;stroke-dasharray:none;stroke-opacity:1"
       d="m 422.10319,391.21734 c 11.21973,0 23.30358,13.49384 22.9934,34.62204 -0.38511,26.23173 -35.6989,39.36127 -48.79536,65.2045 -13.09646,-25.84323 -48.41025,-38.97277 -48.79536,-65.2045 -0.31018,-21.1282 11.77367,-34.62204 22.9934,-34.62204 z"
       inkscape:connector-curvature="0"
       sodipodi:nodetypes="cscscc"
       clip-path="url(#clipPath4573)" />
    <path
       id="use4444"
       style="fill:#ffffff;fill-opacity:1;fill-rule:evenodd;stroke:#93a1a1;stroke-width:5;stroke-linecap:butt;stroke-linejoin:miter;stroke-miterlimit:4;stroke-dasharray:none;stroke-opacity:1"
       d="m 378.56089,365.41538 c 0,-11.21973 -13.49384,-23.30358 -34.62204,-22.9934 -26.23173,0.38511 -39.36127,35.6989 -65.2045,48.79536 25.84323,13.09646 38.97277,48.41025 65.2045,48.79536 21.1282,0.31018 34.62204,-11.77367 34.62204,-22.9934 z"
       inkscape:connector-curvature="0"
       sodipodi:nodetypes="cscscc" />
    <path
       id="path4507"
       style="fill:#ffffff;fill-opacity:1;fill-rule:evenodd;stroke:#93a1a1;stroke-width:2;stroke-linecap:butt;stroke-linejoin:miter;stroke-miterlimit:4;stroke-dasharray:none;stroke-opacity:1"
       d="m 328.60253,384.41331 c 0,-2.95866 -2.93825,-6.14519 -7.53885,-6.0634 -5.71187,0.10156 -8.5708,9.41387 -14.19807,12.86743 5.62727,3.45356 8.4862,12.76587 14.19807,12.86743 4.6006,0.0818 7.53885,-3.10474 7.53885,-6.0634 z"
       inkscape:connector-curvature="0"
       sodipodi:nodetypes="cscscc" />
    <path
       id="path4513"
       style="fill:#ffffff;fill-opacity:1;fill-rule:evenodd;stroke:#93a1a1;stroke-width:1.95992017;stroke-linecap:butt;stroke-linejoin:miter;stroke-miterlimit:4;stroke-dasharray:none;stroke-opacity:1"
       d="m 385.13133,373.43832 c 0,-7.73102 -9.69579,-16.05747 -24.87713,-15.84375 -18.84841,0.26536 -28.28243,24.59858 -46.85168,33.62277 18.56925,9.02419 28.00327,33.35741 46.85168,33.62277 15.18134,0.21372 24.87713,-8.11273 24.87713,-15.84375 z"
       inkscape:connector-curvature="0"
       sodipodi:nodetypes="cscscc" />
    <path
       sodipodi:nodetypes="cscscc"
       inkscape:connector-curvature="0"
       d="m 379.62877,376.43675 c 0,-6.42719 -7.72991,-13.34939 -19.83315,-13.17171 -15.02678,0.22061 -22.548,20.45003 -37.35223,27.9523 14.80423,7.50227 22.32545,27.73169 37.35223,27.9523 12.10324,0.17768 19.83315,-6.74452 19.83315,-13.17171 z"
       style="fill:#ffffff;fill-opacity:1;fill-rule:evenodd;stroke:#93a1a1;stroke-width:3;stroke-linecap:butt;stroke-linejoin:miter;stroke-miterlimit:4;stroke-dasharray:none;stroke-opacity:1"
       id="path4505" />
    <circle
       style="opacity:1;fill:#ffffff;fill-opacity:1;fill-rule:nonzero;stroke:#93a1a1;stroke-width:3;stroke-linecap:butt;stroke-linejoin:miter;stroke-miterlimit:4;stroke-dasharray:none;stroke-opacity:1"
       id="path4503"
       cx="361.78571"
       cy="391.21735"
       r="12.930553"
       d="m 374.71626,391.21735 a 12.930553,12.930553 0 0 1 -12.93055,12.93055 12.930553,12.930553 0 0 1 -12.93056,-12.93055 12.930553,12.930553 0 0 1 12.93056,-12.93056 12.930553,12.930553 0 0 1 12.93055,12.93056 z" />
    <path
       sodipodi:nodetypes="ccc"
       inkscape:connector-curvature="0"
       d="m 395.91316,430.59497 c -8.36812,0 -33.09173,-10.93077 -33.09173,-39.37763 0,-28.44686 24.72361,-39.37763 33.09173,-39.37763"
       style="fill:#ffffff;fill-rule:evenodd;stroke:#93a1a1;stroke-width:2;stroke-linecap:butt;stroke-linejoin:miter;stroke-miterlimit:4;stroke-dasharray:none;stroke-opacity:1"
       id="path4511" />
    <path
       id="use4452"
       style="fill:#ffffff;fill-rule:evenodd;stroke:#93a1a1;stroke-width:4.14707279;stroke-linecap:butt;stroke-linejoin:miter;stroke-miterlimit:4;stroke-dasharray:none;stroke-opacity:1"
       d="m 395.91316,423.87772 c -6.94064,0 -27.44676,-9.06614 -27.44676,-32.66038 0,-23.59424 20.50612,-32.66038 27.44676,-32.66038"
       inkscape:connector-curvature="0"
       sodipodi:nodetypes="ccc" />
    <path
       id="path4489"
       style="fill:none;fill-rule:evenodd;stroke:#93a1a1;stroke-width:3;stroke-linecap:butt;stroke-linejoin:miter;stroke-miterlimit:4;stroke-dasharray:none;stroke-opacity:1"
       d="m 296.0804,379.32012 c 9.01786,-8.39287 12.13388,-1.15437 14.81245,3.84563 m 6.97327,-26.70277 c 14.32116,-13.5699 21.98287,-0.90183 22.76741,5.6134 m -34.19598,6.52946 c 9.77547,-9.15048 15.92195,-4.05856 20.74709,6.24474"
       inkscape:connector-curvature="0"
       sodipodi:nodetypes="cccccc" />
    <use
       x="0"
       y="0"
       xlink:href="#path4489"
       id="use4501"
       transform="matrix(1,0,0,-1,-4.1610487e-6,782.7542)"
       width="100%"
       height="100%" />
    <path
       sodipodi:nodetypes="sssssszsss"
       inkscape:connector-curvature="0"
       id="path4567"
       d="m 342.94679,304.2984 c -47.96881,0 -86.91992,38.95111 -86.91992,86.91992 0,47.96881 38.95111,86.91797 86.91992,86.91797 47.96881,0 86.91992,-38.94916 86.91992,-86.91797 0,-47.96881 -38.95111,-86.91992 -86.91992,-86.91992 z m 0,5.96094 c 44.74732,0 52.95899,60.9604 52.95899,80.95898 0,19.99858 -8.21167,80.95703 -52.95899,80.95703 -44.74732,0 -80.95898,-36.20971 -80.95898,-80.95703 0,-44.74732 36.21166,-80.95898 80.95898,-80.95898 z"
       style="color:#000000;font-style:normal;font-variant:normal;font-weight:normal;font-stretch:normal;font-size:medium;line-height:normal;font-family:sans-serif;text-indent:0;text-align:start;text-decoration:none;text-decoration-line:none;text-decoration-style:solid;text-decoration-color:#000000;letter-spacing:normal;word-spacing:normal;text-transform:none;direction:ltr;block-progression:tb;writing-mode:lr-tb;baseline-shift:baseline;text-anchor:start;white-space:normal;clip-rule:nonzero;display:inline;overflow:visible;visibility:visible;opacity:1;isolation:auto;mix-blend-mode:normal;color-interpolation:sRGB;color-interpolation-filters:linearRGB;solid-color:#000000;solid-opacity:1;fill:#002b36;fill-opacity:1;fill-rule:nonzero;stroke:none;stroke-width:5.96086454;stroke-linecap:butt;stroke-linejoin:miter;stroke-miterlimit:3;stroke-dasharray:none;stroke-dashoffset:0;stroke-opacity:1;color-rendering:auto;image-rendering:auto;shape-rendering:auto;text-rendering:auto;enable-background:accumulate" />
  </g>
  <g
     inkscape:groupmode="layer"
     id="layer4"
     inkscape:label="hide"
     style="display:none"
     transform="translate(-256.02687,-304.2984)">
    <path
       id="path4461"
       style="color:#000000;font-style:normal;font-variant:normal;font-weight:normal;font-stretch:normal;font-size:medium;line-height:normal;font-family:sans-serif;text-indent:0;text-align:start;text-decoration:none;text-decoration-line:none;text-decoration-style:solid;text-decoration-color:#000000;letter-spacing:normal;word-spacing:normal;text-transform:none;direction:ltr;block-progression:tb;writing-mode:lr-tb;baseline-shift:baseline;text-anchor:start;white-space:normal;clip-rule:nonzero;display:inline;overflow:visible;visibility:visible;opacity:1;isolation:auto;mix-blend-mode:normal;color-interpolation:sRGB;color-interpolation-filters:linearRGB;solid-color:#000000;solid-opacity:1;fill:#ffffff;fill-opacity:1;fill-rule:nonzero;stroke:none;stroke-width:5.96086454;stroke-linecap:butt;stroke-linejoin:miter;stroke-miterlimit:3;stroke-dasharray:none;stroke-dashoffset:0;stroke-opacity:1;color-rendering:auto;image-rendering:auto;shape-rendering:auto;text-rendering:auto;enable-background:accumulate"
       d="m 342.94679,308.2984 c -47.96881,0 -82.91992,34.95111 -82.91992,82.91992 0,47.96881 34.95111,82.91797 82.91992,82.91797 47.96881,0 82.91992,-34.94916 82.91992,-82.91797 0,-47.96881 -34.95111,-82.91992 -82.91992,-82.91992 z m -112.12694,-29.20798 224.25387,0 0,224.25386 -224.25387,0 z"
       inkscape:connector-curvature="0"
       sodipodi:nodetypes="sssssccccc" />
    <rect
       style="display:inline;opacity:1;fill:#fdf6e3;fill-opacity:1;fill-rule:nonzero;stroke:#fdf6e3;stroke-width:1.56449556;stroke-linecap:butt;stroke-linejoin:miter;stroke-miterlimit:4;stroke-dasharray:none;stroke-opacity:1"
       id="rect4515"
       width="250.34084"
       height="251.86409"
       x="216.97243"
       y="262.8587" />
  </g>
</svg>
